<svg xmlns="http://www.w3.org/2000/svg" xmlns:xlink="http://www.w3.org/1999/xlink" width="2000" zoomAndPan="magnify" viewBox="0 0 1500 1499.999933" height="2000" preserveAspectRatio="xMidYMid meet" version="1.0"><defs><g/><clipPath id="c962a27e43"><path d="M 20 209 L 934.601562 209 L 934.601562 323.160156 L 20 323.160156 Z M 20 209 " clip-rule="nonzero"/></clipPath><clipPath id="8c7ef002e0"><rect x="0" width="915" y="0" height="115"/></clipPath><clipPath id="01858e8998"><path d="M 0.761719 0.359375 L 902 0.359375 L 902 285 L 0.761719 285 Z M 0.761719 0.359375 " clip-rule="nonzero"/></clipPath><clipPath id="4492fa6d37"><rect x="0" width="902" y="0" height="285"/></clipPath><clipPath id="94dca7bd07"><rect x="0" width="935" y="0" height="324"/></clipPath><clipPath id="c57b42bcf0"><path d="M 212.933594 557.574219 L 273.683594 557.574219 L 273.683594 591.324219 L 212.933594 591.324219 Z M 212.933594 557.574219 " clip-rule="nonzero"/></clipPath><clipPath id="b09ec887e4"><path d="M 63.585938 558.371094 L 448.335938 558.371094 L 448.335938 942.371094 L 63.585938 942.371094 Z M 63.585938 558.371094 " clip-rule="nonzero"/></clipPath><clipPath id="cf67cc5fb7"><path d="M 329.804688 566.84375 L 366.554688 566.84375 L 366.554688 774.59375 L 329.804688 774.59375 Z M 329.804688 566.84375 " clip-rule="nonzero"/></clipPath><clipPath id="d150405df6"><path d="M 232.4375 566.550781 L 273.6875 566.550781 L 273.6875 700.050781 L 232.4375 700.050781 Z M 232.4375 566.550781 " clip-rule="nonzero"/></clipPath><clipPath id="d2cb91a62c"><path d="M 320.679688 628.523438 L 361.929688 628.523438 L 361.929688 762.023438 L 320.679688 762.023438 Z M 320.679688 628.523438 " clip-rule="nonzero"/></clipPath></defs><g transform="matrix(1, 0, 0, 1, 521, 585)"><g clip-path="url(#94dca7bd07)"><g clip-path="url(#c962a27e43)"><g transform="matrix(1, 0, 0, 1, 20, 209)"><g clip-path="url(#8c7ef002e0)"><g fill="#9b177e" fill-opacity="1"><g transform="translate(0.424752, 97.436309)"><g><path d="M 50.921875 -13.453125 L 21.265625 -13.453125 L 15.34375 0 L 1.125 0 L 32.75 -66.359375 L 39.4375 -66.359375 L 71.15625 0 L 56.953125 0 Z M 26.078125 -24.65625 L 46.125 -24.65625 L 36.046875 -46.59375 Z M 26.078125 -24.65625 "/></g></g></g><g fill="#9b177e" fill-opacity="1"><g transform="translate(120.814047, 97.436309)"><g><path d="M 39.25 -11.953125 C 42.757812 -11.953125 45.988281 -12.734375 48.9375 -14.296875 C 51.894531 -15.867188 54.3125 -18.003906 56.1875 -20.703125 L 66.640625 -11.859375 C 63.378906 -8.035156 59.394531 -4.976562 54.6875 -2.6875 C 49.976562 -0.394531 44.832031 0.75 39.25 0.75 C 34.414062 0.75 29.878906 -0.125 25.640625 -1.875 C 21.410156 -3.632812 17.691406 -6.066406 14.484375 -9.171875 C 11.285156 -12.285156 8.773438 -15.878906 6.953125 -19.953125 C 5.140625 -24.035156 4.234375 -28.425781 4.234375 -33.125 C 4.234375 -37.832031 5.140625 -42.222656 6.953125 -46.296875 C 8.773438 -50.378906 11.285156 -53.988281 14.484375 -57.125 C 17.691406 -60.269531 21.410156 -62.71875 25.640625 -64.46875 C 29.878906 -66.226562 34.414062 -67.109375 39.25 -67.109375 C 44.832031 -67.109375 49.976562 -65.960938 54.6875 -63.671875 C 59.394531 -61.378906 63.378906 -58.289062 66.640625 -54.40625 L 56.1875 -45.5625 C 54.3125 -48.257812 51.894531 -50.390625 48.9375 -51.953125 C 45.988281 -53.523438 42.757812 -54.3125 39.25 -54.3125 C 35.425781 -54.3125 31.910156 -53.429688 28.703125 -51.671875 C 25.503906 -49.921875 22.945312 -47.457031 21.03125 -44.28125 C 19.125 -41.113281 18.171875 -37.394531 18.171875 -33.125 C 18.171875 -28.988281 19.125 -25.316406 21.03125 -22.109375 C 22.945312 -18.910156 25.503906 -16.414062 28.703125 -14.625 C 31.910156 -12.84375 35.425781 -11.953125 39.25 -11.953125 Z M 39.25 -11.953125 "/></g></g></g><g fill="#9b177e" fill-opacity="1"><g transform="translate(238.756091, 97.436309)"><g><path d="M 50.921875 -13.453125 L 21.265625 -13.453125 L 15.34375 0 L 1.125 0 L 32.75 -66.359375 L 39.4375 -66.359375 L 71.15625 0 L 56.953125 0 Z M 26.078125 -24.65625 L 46.125 -24.65625 L 36.046875 -46.59375 Z M 26.078125 -24.65625 "/></g></g></g><g fill="#9b177e" fill-opacity="1"><g transform="translate(359.145386, 97.436309)"><g><path d="M 66.546875 -33.125 C 66.546875 -28.738281 65.742188 -24.550781 64.140625 -20.5625 C 62.546875 -16.582031 60.320312 -13.050781 57.46875 -9.96875 C 54.613281 -6.894531 51.285156 -4.460938 47.484375 -2.671875 C 43.691406 -0.890625 39.628906 0 35.296875 0 L 6.875 0 L 6.875 -66.359375 L 33.125 -66.359375 C 37.769531 -66.359375 42.097656 -65.492188 46.109375 -63.765625 C 50.128906 -62.046875 53.675781 -59.660156 56.75 -56.609375 C 59.832031 -53.566406 62.234375 -50.035156 63.953125 -46.015625 C 65.679688 -42.003906 66.546875 -37.707031 66.546875 -33.125 Z M 19.953125 -12.328125 L 34.171875 -12.328125 C 37.679688 -12.328125 40.878906 -13.285156 43.765625 -15.203125 C 46.648438 -17.117188 48.957031 -19.660156 50.6875 -22.828125 C 52.414062 -25.992188 53.28125 -29.425781 53.28125 -33.125 C 53.28125 -36.957031 52.367188 -40.457031 50.546875 -43.625 C 48.722656 -46.789062 46.289062 -49.316406 43.25 -51.203125 C 40.207031 -53.085938 36.832031 -54.03125 33.125 -54.03125 L 19.953125 -54.03125 Z M 19.953125 -12.328125 "/></g></g></g><g fill="#9b177e" fill-opacity="1"><g transform="translate(478.028684, 97.436309)"><g><path d="M 57.796875 -11.671875 L 57.796875 0 L 6.875 0 L 6.875 -66.359375 L 55.8125 -66.359375 L 55.8125 -54.6875 L 19.953125 -54.6875 L 19.953125 -37.84375 L 49.984375 -37.84375 L 49.984375 -26.546875 L 19.953125 -26.546875 L 19.953125 -11.671875 Z M 57.796875 -11.671875 "/></g></g></g><g fill="#9b177e" fill-opacity="1"><g transform="translate(587.87598, 97.436309)"><g><path d="M 75.015625 -66.359375 L 75.015625 0 L 61.46875 0 L 61.46875 -36.703125 L 40.9375 -7.90625 L 20.328125 -36.703125 L 20.328125 0 L 6.875 0 L 6.875 -66.359375 L 13.453125 -66.359375 L 40.9375 -28.328125 L 68.421875 -66.359375 Z M 75.015625 -66.359375 "/></g></g></g><g fill="#9b177e" fill-opacity="1"><g transform="translate(717.866021, 97.436309)"><g><path d="M 20.703125 0 L 7.15625 0 L 7.15625 -66.359375 L 20.703125 -66.359375 Z M 20.703125 0 "/></g></g></g><g fill="#9b177e" fill-opacity="1"><g transform="translate(793.734255, 97.436309)"><g><path d="M 50.921875 -13.453125 L 21.265625 -13.453125 L 15.34375 0 L 1.125 0 L 32.75 -66.359375 L 39.4375 -66.359375 L 71.15625 0 L 56.953125 0 Z M 26.078125 -24.65625 L 46.125 -24.65625 L 36.046875 -46.59375 Z M 26.078125 -24.65625 "/></g></g></g></g></g></g><g clip-path="url(#01858e8998)"><g transform="matrix(1, 0, 0, 1, 0, 0.000000000000113687)"><g clip-path="url(#4492fa6d37)"><g fill="#ffffff" fill-opacity="1"><g transform="translate(2.940786, 205.073459)"><g><path d="M 13.546875 -186.28125 L 67.515625 -186.28125 C 93.398438 -186.28125 115.523438 -177.4375 133.890625 -159.75 C 152.253906 -142.0625 161.4375 -119.894531 161.4375 -93.25 C 161.4375 -66.457031 152.289062 -44.21875 134 -26.53125 C 115.71875 -8.84375 93.554688 0 67.515625 0 L 13.546875 0 Z M 56 -37.9375 L 62.546875 -37.9375 C 78.046875 -37.9375 90.722656 -43.164062 100.578125 -53.625 C 110.441406 -64.082031 115.453125 -77.21875 115.609375 -93.03125 C 115.609375 -108.832031 110.675781 -122 100.8125 -132.53125 C 90.957031 -143.070312 78.203125 -148.34375 62.546875 -148.34375 L 56 -148.34375 Z M 56 -37.9375 "/></g></g></g><g fill="#ffffff" fill-opacity="1"><g transform="translate(162.575904, 205.073459)"><g><path d="M 130.734375 -52.390625 L 46.734375 -52.390625 C 46.734375 -44.253906 49.367188 -38.226562 54.640625 -34.3125 C 59.910156 -30.40625 65.628906 -28.453125 71.796875 -28.453125 C 78.273438 -28.453125 83.394531 -29.316406 87.15625 -31.046875 C 90.914062 -32.773438 95.207031 -36.203125 100.03125 -41.328125 L 128.9375 -26.875 C 116.882812 -6.695312 96.863281 3.390625 68.875 3.390625 C 51.40625 3.390625 36.421875 -2.59375 23.921875 -14.5625 C 11.429688 -26.53125 5.1875 -40.941406 5.1875 -57.796875 C 5.1875 -74.660156 11.429688 -89.113281 23.921875 -101.15625 C 36.421875 -113.195312 51.40625 -119.21875 68.875 -119.21875 C 87.238281 -119.21875 102.175781 -113.910156 113.6875 -103.296875 C 125.207031 -92.691406 130.96875 -77.523438 130.96875 -57.796875 C 130.96875 -55.085938 130.890625 -53.285156 130.734375 -52.390625 Z M 47.875 -74.515625 L 91.90625 -74.515625 C 91 -80.535156 88.625 -85.160156 84.78125 -88.390625 C 80.945312 -91.628906 76.019531 -93.25 70 -93.25 C 63.375 -93.25 58.101562 -91.519531 54.1875 -88.0625 C 50.28125 -84.601562 48.175781 -80.085938 47.875 -74.515625 Z M 47.875 -74.515625 "/></g></g></g><g fill="#ffffff" fill-opacity="1"><g transform="translate(291.728998, 205.073459)"><g><path d="M 20.328125 -115.828125 L 20.328125 -158.96875 L 60.28125 -158.96875 L 60.28125 -115.828125 L 84.671875 -115.828125 L 84.671875 -85.34375 L 60.28125 -85.34375 L 60.28125 -48.546875 C 60.28125 -37.859375 63.289062 -32.515625 69.3125 -32.515625 C 70.820312 -32.515625 72.40625 -32.816406 74.0625 -33.421875 C 75.71875 -34.023438 77 -34.625 77.90625 -35.21875 L 79.25 -36.125 L 89.1875 -3.84375 C 80.601562 0.976562 70.820312 3.390625 59.84375 3.390625 C 52.3125 3.390625 45.832031 2.070312 40.40625 -0.5625 C 34.988281 -3.195312 30.890625 -6.734375 28.109375 -11.171875 C 25.328125 -15.617188 23.332031 -20.285156 22.125 -25.171875 C 20.925781 -30.066406 20.328125 -35.300781 20.328125 -40.875 L 20.328125 -85.34375 L 3.609375 -85.34375 L 3.609375 -115.828125 Z M 20.328125 -115.828125 "/></g></g></g><g fill="#ffffff" fill-opacity="1"><g transform="translate(373.917202, 205.073459)"><g><path d="M 21.4375 -14.328125 C 10.601562 -26.148438 5.1875 -40.640625 5.1875 -57.796875 C 5.1875 -74.960938 10.601562 -89.488281 21.4375 -101.375 C 32.28125 -113.269531 46.054688 -119.21875 62.765625 -119.21875 C 78.117188 -119.21875 90.765625 -114.398438 100.703125 -104.765625 L 100.703125 -115.828125 L 140.671875 -115.828125 L 140.671875 0 L 101.15625 0 L 101.15625 -13.09375 L 100.703125 -13.09375 C 90.765625 -2.101562 78.117188 3.390625 62.765625 3.390625 C 46.054688 3.390625 32.28125 -2.515625 21.4375 -14.328125 Z M 55.421875 -77.4375 C 50.234375 -72.320312 47.640625 -65.773438 47.640625 -57.796875 C 47.640625 -49.828125 50.125 -43.316406 55.09375 -38.265625 C 60.0625 -33.222656 66.609375 -30.703125 74.734375 -30.703125 C 82.566406 -30.703125 89.003906 -33.257812 94.046875 -38.375 C 99.085938 -43.5 101.609375 -49.972656 101.609375 -57.796875 C 101.609375 -65.773438 99.007812 -72.320312 93.8125 -77.4375 C 88.625 -82.5625 82.265625 -85.125 74.734375 -85.125 C 67.054688 -85.125 60.617188 -82.5625 55.421875 -77.4375 Z M 55.421875 -77.4375 "/></g></g></g><g fill="#ffffff" fill-opacity="1"><g transform="translate(521.133716, 205.073459)"><g><path d="M 75.1875 -86.484375 C 67.664062 -86.484375 61.191406 -83.695312 55.765625 -78.125 C 50.347656 -72.550781 47.640625 -65.851562 47.640625 -58.03125 C 47.640625 -50.050781 50.347656 -43.273438 55.765625 -37.703125 C 61.191406 -32.140625 67.664062 -29.359375 75.1875 -29.359375 C 78.800781 -29.359375 82.222656 -29.804688 85.453125 -30.703125 C 88.691406 -31.609375 91.066406 -32.515625 92.578125 -33.421875 L 94.609375 -34.765625 L 108.15625 -7 C 107.101562 -6.25 105.632812 -5.304688 103.75 -4.171875 C 101.875 -3.046875 97.582031 -1.503906 90.875 0.453125 C 84.175781 2.410156 76.988281 3.390625 69.3125 3.390625 C 52.300781 3.390625 37.359375 -2.59375 24.484375 -14.5625 C 11.617188 -26.53125 5.1875 -40.867188 5.1875 -57.578125 C 5.1875 -74.441406 11.617188 -88.929688 24.484375 -101.046875 C 37.359375 -113.160156 52.300781 -119.21875 69.3125 -119.21875 C 76.988281 -119.21875 84.0625 -118.3125 90.53125 -116.5 C 97.007812 -114.695312 101.601562 -112.894531 104.3125 -111.09375 L 108.15625 -108.375 L 94.609375 -81.0625 C 89.640625 -84.675781 83.164062 -86.484375 75.1875 -86.484375 Z M 75.1875 -86.484375 "/></g></g></g><g fill="#ffffff" fill-opacity="1"><g transform="translate(624.998024, 205.073459)"><g><path d="M 13.546875 0 L 13.546875 -194.1875 L 53.515625 -194.1875 L 53.515625 -103.640625 L 53.96875 -103.640625 C 64.351562 -114.023438 75.414062 -119.21875 87.15625 -119.21875 C 92.875 -119.21875 98.554688 -118.460938 104.203125 -116.953125 C 109.847656 -115.453125 115.265625 -113.117188 120.453125 -109.953125 C 125.648438 -106.796875 129.867188 -102.316406 133.109375 -96.515625 C 136.347656 -90.722656 137.96875 -83.988281 137.96875 -76.3125 L 137.96875 0 L 98 0 L 98 -65.484375 C 98 -71.503906 96.078125 -76.769531 92.234375 -81.28125 C 88.398438 -85.800781 83.394531 -88.0625 77.21875 -88.0625 C 71.195312 -88.0625 65.738281 -85.726562 60.84375 -81.0625 C 55.957031 -76.394531 53.515625 -71.203125 53.515625 -65.484375 L 53.515625 0 Z M 13.546875 0 "/></g></g></g><g fill="#ffffff" fill-opacity="1"><g transform="translate(767.247113, 205.073459)"><g><path d="M 130.734375 -52.390625 L 46.734375 -52.390625 C 46.734375 -44.253906 49.367188 -38.226562 54.640625 -34.3125 C 59.910156 -30.40625 65.628906 -28.453125 71.796875 -28.453125 C 78.273438 -28.453125 83.394531 -29.316406 87.15625 -31.046875 C 90.914062 -32.773438 95.207031 -36.203125 100.03125 -41.328125 L 128.9375 -26.875 C 116.882812 -6.695312 96.863281 3.390625 68.875 3.390625 C 51.40625 3.390625 36.421875 -2.59375 23.921875 -14.5625 C 11.429688 -26.53125 5.1875 -40.941406 5.1875 -57.796875 C 5.1875 -74.660156 11.429688 -89.113281 23.921875 -101.15625 C 36.421875 -113.195312 51.40625 -119.21875 68.875 -119.21875 C 87.238281 -119.21875 102.175781 -113.910156 113.6875 -103.296875 C 125.207031 -92.691406 130.96875 -77.523438 130.96875 -57.796875 C 130.96875 -55.085938 130.890625 -53.285156 130.734375 -52.390625 Z M 47.875 -74.515625 L 91.90625 -74.515625 C 91 -80.535156 88.625 -85.160156 84.78125 -88.390625 C 80.945312 -91.628906 76.019531 -93.25 70 -93.25 C 63.375 -93.25 58.101562 -91.519531 54.1875 -88.0625 C 50.28125 -84.601562 48.175781 -80.085938 47.875 -74.515625 Z M 47.875 -74.515625 "/></g></g></g></g></g></g><path stroke-linecap="butt" transform="matrix(0.53043, 0, 0, 0.53043, 776.959522, 46.425511)" fill="none" stroke-linejoin="miter" d="M 0.00266944 21.496943 L 225.115035 21.496943 " stroke="#9b177e" stroke-width="43" stroke-opacity="1" stroke-miterlimit="4"/></g></g><g clip-path="url(#c57b42bcf0)"><path fill="#9b177e" d="M 134.007812 900.789062 L 133.984375 663.984375 C 133.984375 661.277344 134.320312 658.550781 134.972656 655.851562 C 137.929688 643.648438 147.359375 632.027344 161.199219 625.398438 C 183.242188 614.847656 208.136719 620.957031 216.792969 639.046875 C 225.453125 657.136719 214.601562 680.355469 192.558594 690.910156 C 175.609375 699.023438 156.980469 697.289062 145.339844 687.828125 L 145.339844 753.824219 L 180.609375 753.824219 L 180.609375 929.003906 C 193.175781 934.359375 206.421875 938.421875 220.183594 941.027344 L 220.144531 720.679688 C 220.144531 716.289062 220.691406 711.871094 221.75 707.5 C 226.539062 687.71875 241.816406 668.886719 264.25 658.148438 C 299.972656 641.050781 340.3125 650.949219 354.34375 680.265625 C 368.378906 709.582031 350.796875 747.210938 315.074219 764.316406 C 287.605469 777.460938 257.410156 774.648438 238.542969 759.320312 L 238.550781 832.207031 L 273.800781 832.207031 L 273.800781 943.625 C 288.800781 942.285156 303.308594 939.226562 317.128906 934.652344 L 317.113281 820.699219 C 317.113281 817.773438 317.480469 814.824219 318.1875 811.90625 C 321.382812 798.707031 331.578125 786.144531 346.542969 778.980469 C 370.378906 767.570312 397.296875 774.171875 406.65625 793.738281 C 416.023438 813.296875 404.289062 838.402344 380.453125 849.816406 C 362.125 858.585938 341.980469 856.710938 329.390625 846.484375 L 329.398438 930.128906 C 399.984375 901.308594 449.726562 831.972656 449.726562 751.023438 C 449.726562 644.222656 363.148438 557.644531 256.347656 557.644531 C 149.546875 557.644531 62.96875 644.222656 62.96875 751.023438 C 62.96875 811.40625 90.648438 865.328125 134.007812 900.789062 " fill-opacity="1" fill-rule="nonzero"/></g><g clip-path="url(#b09ec887e4)"><path fill="#9b177e" d="M 377.863281 600.992188 L 377.886719 836.566406 C 377.886719 839.257812 377.550781 841.96875 376.902344 844.652344 C 373.960938 856.796875 364.582031 868.359375 350.8125 874.949219 C 328.886719 885.445312 304.121094 879.371094 295.507812 861.371094 C 286.894531 843.378906 297.6875 820.28125 319.617188 809.777344 C 336.476562 801.707031 355.007812 803.433594 366.59375 812.84375 L 366.589844 747.191406 L 331.503906 747.191406 L 331.503906 572.921875 C 319.003906 567.59375 305.824219 563.554688 292.132812 560.960938 L 292.171875 780.164062 C 292.171875 784.53125 291.628906 788.925781 290.578125 793.277344 C 285.8125 812.953125 270.613281 831.6875 248.296875 842.371094 C 212.757812 859.378906 172.628906 849.535156 158.671875 820.367188 C 144.707031 791.207031 162.199219 753.769531 197.738281 736.753906 C 225.0625 723.675781 255.101562 726.476562 273.871094 741.722656 L 273.863281 669.214844 L 238.796875 669.214844 L 238.796875 558.378906 C 223.875 559.710938 209.441406 562.75 195.695312 567.300781 L 195.707031 680.664062 C 195.707031 683.574219 195.34375 686.507812 194.640625 689.410156 C 191.460938 702.542969 181.320312 715.039062 166.429688 722.167969 C 142.71875 733.519531 115.941406 726.949219 106.628906 707.484375 C 97.3125 688.027344 108.984375 663.050781 132.695312 651.699219 C 150.929688 642.972656 170.96875 644.835938 183.496094 655.011719 L 183.488281 571.804688 C 113.265625 600.472656 63.785156 669.449219 63.785156 749.976562 C 63.785156 856.222656 149.914062 942.351562 256.160156 942.351562 C 362.40625 942.351562 448.53125 856.222656 448.53125 749.976562 C 448.53125 689.90625 420.996094 636.265625 377.863281 600.992188 " fill-opacity="1" fill-rule="nonzero"/></g><g clip-path="url(#cf67cc5fb7)"><path fill="#9b177e" d="M 134.421875 899.003906 L 134.394531 663.429688 C 134.394531 660.734375 134.730469 658.023438 135.378906 655.339844 C 138.320312 643.199219 147.699219 631.636719 161.46875 625.042969 C 183.398438 614.550781 208.160156 620.625 216.773438 638.621094 C 225.390625 656.617188 214.59375 679.714844 192.667969 690.21875 C 175.804688 698.289062 157.273438 696.5625 145.691406 687.148438 L 145.695312 752.800781 L 180.78125 752.800781 L 180.78125 927.074219 C 193.28125 932.402344 206.457031 936.441406 220.148438 939.03125 L 220.109375 719.828125 C 220.109375 715.464844 220.652344 711.066406 221.703125 706.71875 C 226.472656 687.039062 241.667969 668.304688 263.984375 657.625 C 299.523438 640.613281 339.652344 650.460938 353.613281 679.625 C 367.574219 708.789062 350.082031 746.222656 314.542969 763.238281 C 287.21875 776.316406 257.183594 773.515625 238.414062 758.269531 L 238.421875 830.78125 L 273.484375 830.78125 L 273.484375 941.617188 C 288.410156 940.285156 302.839844 937.242188 316.589844 932.691406 L 316.574219 819.332031 C 316.574219 816.417969 316.941406 813.488281 317.640625 810.585938 C 320.820312 797.453125 330.964844 784.957031 345.851562 777.828125 C 369.5625 766.476562 396.339844 773.046875 405.652344 792.507812 C 414.972656 811.964844 403.296875 836.945312 379.585938 848.296875 C 361.355469 857.019531 341.3125 855.15625 328.789062 844.980469 L 328.796875 928.191406 C 399.015625 899.519531 448.496094 830.546875 448.496094 750.015625 C 448.496094 643.773438 362.367188 557.644531 256.125 557.644531 C 149.875 557.644531 63.75 643.773438 63.75 750.015625 C 63.75 810.085938 91.285156 863.726562 134.421875 899.003906 " fill-opacity="1" fill-rule="nonzero"/></g><g clip-path="url(#d150405df6)"><path fill="#9b177e" d="M 276.121094 755.996094 L 276.101562 560.070312 C 276.101562 557.828125 276.378906 555.574219 276.917969 553.34375 C 279.367188 543.246094 287.164062 533.628906 298.617188 528.144531 C 316.855469 519.417969 337.453125 524.46875 344.613281 539.4375 C 351.78125 554.40625 342.800781 573.613281 324.5625 582.347656 C 310.542969 589.0625 295.128906 587.625 285.496094 579.796875 L 285.496094 634.398438 L 314.679688 634.398438 L 314.679688 779.339844 C 325.074219 783.773438 336.035156 787.132812 347.421875 789.289062 L 347.386719 606.976562 C 347.386719 603.347656 347.839844 599.691406 348.714844 596.074219 C 352.679688 579.707031 365.320312 564.125 383.878906 555.242188 C 413.4375 541.097656 446.8125 549.285156 458.421875 573.539062 C 470.035156 597.796875 455.484375 628.929688 425.929688 643.082031 C 403.203125 653.957031 378.222656 651.628906 362.609375 638.949219 L 362.617188 699.253906 L 391.78125 699.253906 L 391.78125 791.4375 C 404.191406 790.328125 416.195312 787.796875 427.628906 784.011719 L 427.617188 689.734375 C 427.617188 687.308594 427.921875 684.871094 428.503906 682.457031 C 431.148438 671.535156 439.585938 661.144531 451.96875 655.214844 C 471.6875 645.773438 493.957031 651.238281 501.703125 667.425781 C 509.453125 683.605469 499.746094 704.378906 480.023438 713.820312 C 464.859375 721.078125 448.191406 719.527344 437.773438 711.066406 L 437.78125 780.269531 C 496.183594 756.425781 537.335938 699.058594 537.335938 632.082031 C 537.335938 543.722656 465.703125 472.089844 377.339844 472.089844 C 288.976562 472.089844 217.34375 543.722656 217.34375 632.082031 C 217.34375 682.042969 240.246094 726.65625 276.121094 755.996094 " fill-opacity="1" fill-rule="nonzero"/></g><g clip-path="url(#d2cb91a62c)"><path fill="#9b177e" d="M 364.363281 817.96875 L 364.34375 622.042969 C 364.34375 619.800781 364.625 617.546875 365.164062 615.316406 C 367.609375 605.21875 375.410156 595.601562 386.863281 590.117188 C 405.097656 581.390625 425.695312 586.441406 432.859375 601.410156 C 440.023438 616.375 431.042969 635.585938 412.808594 644.320312 C 398.785156 651.035156 383.371094 649.597656 373.738281 641.769531 L 373.742188 696.371094 L 402.921875 696.371094 L 402.921875 841.3125 C 413.316406 845.746094 424.277344 849.105469 435.664062 851.257812 L 435.632812 668.949219 C 435.632812 665.320312 436.082031 661.664062 436.957031 658.046875 C 440.921875 641.679688 453.5625 626.097656 472.125 617.214844 C 501.679688 603.066406 535.054688 611.257812 546.664062 635.511719 C 558.277344 659.765625 543.730469 690.902344 514.171875 705.054688 C 491.445312 715.929688 466.464844 713.601562 450.855469 700.921875 L 450.859375 761.226562 L 480.023438 761.226562 L 480.023438 853.410156 C 492.4375 852.300781 504.4375 849.769531 515.871094 845.984375 L 515.863281 751.707031 C 515.863281 749.28125 516.164062 746.84375 516.75 744.429688 C 519.390625 733.507812 527.828125 723.117188 540.210938 717.1875 C 559.933594 707.746094 582.199219 713.210938 589.945312 729.398438 C 597.695312 745.578125 587.988281 766.351562 568.265625 775.792969 C 553.105469 783.050781 536.4375 781.5 526.019531 773.039062 L 526.027344 842.242188 C 584.425781 818.398438 625.582031 761.03125 625.582031 694.054688 C 625.582031 605.695312 553.949219 534.0625 465.585938 534.0625 C 377.21875 534.0625 305.589844 605.695312 305.589844 694.054688 C 305.589844 744.015625 328.492188 788.628906 364.363281 817.96875 " fill-opacity="1" fill-rule="nonzero"/></g></svg>