<svg xmlns="http://www.w3.org/2000/svg" xmlns:xlink="http://www.w3.org/1999/xlink" width="2000" zoomAndPan="magnify" viewBox="0 0 1500 1499.999933" height="2000" preserveAspectRatio="xMidYMid meet" version="1.0"><defs><g/><clipPath id="0226697fbd"><rect x="0" width="1295" y="0" height="160"/></clipPath><clipPath id="682cd8c3e1"><rect x="0" width="1274" y="0" height="403"/></clipPath><clipPath id="57136faae2"><path d="M 428.277344 206.671875 L 1071.777344 206.671875 L 1071.777344 847.921875 L 428.277344 847.921875 Z M 428.277344 206.671875 " clip-rule="nonzero"/></clipPath><clipPath id="2add3ed567"><path d="M 677.316406 205.488281 L 779.316406 205.488281 L 779.316406 261.738281 L 677.316406 261.738281 Z M 677.316406 205.488281 " clip-rule="nonzero"/></clipPath><clipPath id="35fdc2987c"><path d="M 872.972656 220.683594 L 934.472656 220.683594 L 934.472656 567.933594 L 872.972656 567.933594 Z M 872.972656 220.683594 " clip-rule="nonzero"/></clipPath><clipPath id="7157a8088e"><path d="M 710.3125 220.648438 L 779.3125 220.648438 L 779.3125 443.398438 L 710.3125 443.398438 Z M 710.3125 220.648438 " clip-rule="nonzero"/></clipPath><clipPath id="ccb719a2f4"><path d="M 857.746094 324.191406 L 926.746094 324.191406 L 926.746094 546.941406 L 857.746094 546.941406 Z M 857.746094 324.191406 " clip-rule="nonzero"/></clipPath></defs><g transform="matrix(1, 0, 0, 1, 137, 1135)"><g clip-path="url(#0226697fbd)"><g fill="#9b177e" fill-opacity="1"><g transform="translate(1.092122, 136.000844)"><g><path d="M 72 -19.03125 L 30.078125 -19.03125 L 21.6875 0 L 1.59375 0 L 46.3125 -93.828125 L 55.765625 -93.828125 L 100.625 0 L 80.515625 0 Z M 36.859375 -34.875 L 65.21875 -34.875 L 50.96875 -65.875 Z M 36.859375 -34.875 "/></g></g></g><g fill="#9b177e" fill-opacity="1"><g transform="translate(171.298869, 136.000844)"><g><path d="M 55.5 -16.90625 C 60.46875 -16.90625 65.035156 -18.015625 69.203125 -20.234375 C 73.378906 -22.453125 76.796875 -25.46875 79.453125 -29.28125 L 94.234375 -16.765625 C 89.617188 -11.359375 83.984375 -7.035156 77.328125 -3.796875 C 70.671875 -0.554688 63.394531 1.0625 55.5 1.0625 C 48.664062 1.0625 42.253906 -0.175781 36.265625 -2.65625 C 30.273438 -5.144531 25.015625 -8.582031 20.484375 -12.96875 C 15.960938 -17.363281 12.414062 -22.441406 9.84375 -28.203125 C 7.269531 -33.972656 5.984375 -40.1875 5.984375 -46.84375 C 5.984375 -53.5 7.269531 -59.710938 9.84375 -65.484375 C 12.414062 -71.253906 15.960938 -76.351562 20.484375 -80.78125 C 25.015625 -85.21875 30.273438 -88.675781 36.265625 -91.15625 C 42.253906 -93.644531 48.664062 -94.890625 55.5 -94.890625 C 63.394531 -94.890625 70.671875 -93.269531 77.328125 -90.03125 C 83.984375 -86.800781 89.617188 -82.429688 94.234375 -76.921875 L 79.453125 -64.421875 C 76.796875 -68.234375 73.378906 -71.25 69.203125 -73.46875 C 65.035156 -75.6875 60.46875 -76.796875 55.5 -76.796875 C 50.082031 -76.796875 45.113281 -75.550781 40.59375 -73.0625 C 36.070312 -70.582031 32.457031 -67.101562 29.75 -62.625 C 27.039062 -58.144531 25.6875 -52.882812 25.6875 -46.84375 C 25.6875 -40.988281 27.039062 -35.796875 29.75 -31.265625 C 32.457031 -26.742188 36.070312 -23.21875 40.59375 -20.6875 C 45.113281 -18.164062 50.082031 -16.90625 55.5 -16.90625 Z M 55.5 -16.90625 "/></g></g></g><g fill="#9b177e" fill-opacity="1"><g transform="translate(338.045923, 136.000844)"><g><path d="M 72 -19.03125 L 30.078125 -19.03125 L 21.6875 0 L 1.59375 0 L 46.3125 -93.828125 L 55.765625 -93.828125 L 100.625 0 L 80.515625 0 Z M 36.859375 -34.875 L 65.21875 -34.875 L 50.96875 -65.875 Z M 36.859375 -34.875 "/></g></g></g><g fill="#9b177e" fill-opacity="1"><g transform="translate(508.252695, 136.000844)"><g><path d="M 94.09375 -46.84375 C 94.09375 -40.632812 92.960938 -34.710938 90.703125 -29.078125 C 88.441406 -23.441406 85.289062 -18.453125 81.25 -14.109375 C 77.21875 -9.765625 72.515625 -6.328125 67.140625 -3.796875 C 61.773438 -1.265625 56.03125 0 49.90625 0 L 9.71875 0 L 9.71875 -93.828125 L 46.84375 -93.828125 C 53.414062 -93.828125 59.539062 -92.609375 65.21875 -90.171875 C 70.894531 -87.734375 75.90625 -84.359375 80.25 -80.046875 C 84.601562 -75.742188 88 -70.753906 90.4375 -65.078125 C 92.875 -59.398438 94.09375 -53.320312 94.09375 -46.84375 Z M 28.21875 -17.4375 L 48.3125 -17.4375 C 53.28125 -17.4375 57.804688 -18.785156 61.890625 -21.484375 C 65.972656 -24.191406 69.234375 -27.785156 71.671875 -32.265625 C 74.109375 -36.753906 75.328125 -41.613281 75.328125 -46.84375 C 75.328125 -52.257812 74.039062 -57.207031 71.46875 -61.6875 C 68.894531 -66.164062 65.457031 -69.734375 61.15625 -72.390625 C 56.851562 -75.054688 52.082031 -76.390625 46.84375 -76.390625 L 28.21875 -76.390625 Z M 28.21875 -17.4375 "/></g></g></g><g fill="#9b177e" fill-opacity="1"><g transform="translate(676.330384, 136.000844)"><g><path d="M 81.71875 -16.5 L 81.71875 0 L 9.71875 0 L 9.71875 -93.828125 L 78.921875 -93.828125 L 78.921875 -77.328125 L 28.21875 -77.328125 L 28.21875 -53.5 L 70.671875 -53.5 L 70.671875 -37.53125 L 28.21875 -37.53125 L 28.21875 -16.5 Z M 81.71875 -16.5 "/></g></g></g><g fill="#9b177e" fill-opacity="1"><g transform="translate(831.633828, 136.000844)"><g><path d="M 106.078125 -93.828125 L 106.078125 0 L 86.90625 0 L 86.90625 -51.90625 L 57.890625 -11.1875 L 28.75 -51.90625 L 28.75 0 L 9.71875 0 L 9.71875 -93.828125 L 19.03125 -93.828125 L 57.890625 -40.0625 L 96.765625 -93.828125 Z M 106.078125 -93.828125 "/></g></g></g><g fill="#9b177e" fill-opacity="1"><g transform="translate(1015.413268, 136.000844)"><g><path d="M 29.28125 0 L 10.109375 0 L 10.109375 -93.828125 L 29.28125 -93.828125 Z M 29.28125 0 "/></g></g></g><g fill="#9b177e" fill-opacity="1"><g transform="translate(1122.680101, 136.000844)"><g><path d="M 72 -19.03125 L 30.078125 -19.03125 L 21.6875 0 L 1.59375 0 L 46.3125 -93.828125 L 55.765625 -93.828125 L 100.625 0 L 80.515625 0 Z M 36.859375 -34.875 L 65.21875 -34.875 L 50.96875 -65.875 Z M 36.859375 -34.875 "/></g></g></g></g></g><g transform="matrix(1, 0, 0, 1, 110, 838)"><g clip-path="url(#682cd8c3e1)"><g fill="#9b177e" fill-opacity="1"><g transform="translate(3.316797, 290.06204)"><g><path d="M 19.15625 -263.390625 L 95.453125 -263.390625 C 132.066406 -263.390625 163.359375 -250.882812 189.328125 -225.875 C 215.296875 -200.863281 228.28125 -169.523438 228.28125 -131.859375 C 228.28125 -93.972656 215.347656 -62.523438 189.484375 -37.515625 C 163.617188 -12.503906 132.273438 0 95.453125 0 L 19.15625 0 Z M 79.171875 -53.640625 L 88.4375 -53.640625 C 110.363281 -53.640625 128.296875 -61.035156 142.234375 -75.828125 C 156.171875 -90.617188 163.25 -109.1875 163.46875 -131.53125 C 163.46875 -153.882812 156.492188 -172.507812 142.546875 -187.40625 C 128.609375 -202.300781 110.570312 -209.75 88.4375 -209.75 L 79.171875 -209.75 Z M 79.171875 -53.640625 "/></g></g></g><g fill="#9b177e" fill-opacity="1"><g transform="translate(229.032589, 290.06204)"><g><path d="M 184.859375 -74.0625 L 66.09375 -74.0625 C 66.09375 -62.570312 69.816406 -54.0625 77.265625 -48.53125 C 84.710938 -43 92.800781 -40.234375 101.53125 -40.234375 C 110.675781 -40.234375 117.910156 -41.457031 123.234375 -43.90625 C 128.554688 -46.351562 134.625 -51.191406 141.4375 -58.421875 L 182.296875 -38 C 165.273438 -9.476562 136.96875 4.78125 97.375 4.78125 C 72.6875 4.78125 51.507812 -3.675781 33.84375 -20.59375 C 16.175781 -37.507812 7.34375 -57.882812 7.34375 -81.71875 C 7.34375 -105.5625 16.175781 -126 33.84375 -143.03125 C 51.507812 -160.0625 72.6875 -168.578125 97.375 -168.578125 C 123.34375 -168.578125 144.46875 -161.070312 160.75 -146.0625 C 177.03125 -131.0625 185.171875 -109.617188 185.171875 -81.734375 C 185.171875 -77.898438 185.066406 -75.34375 184.859375 -74.0625 Z M 67.6875 -105.359375 L 129.9375 -105.359375 C 128.664062 -113.867188 125.316406 -120.410156 119.890625 -124.984375 C 114.460938 -129.566406 107.488281 -131.859375 98.96875 -131.859375 C 89.601562 -131.859375 82.15625 -129.410156 76.625 -124.515625 C 71.09375 -119.617188 68.113281 -113.234375 67.6875 -105.359375 Z M 67.6875 -105.359375 "/></g></g></g><g fill="#9b177e" fill-opacity="1"><g transform="translate(411.648379, 290.06204)"><g><path d="M 28.734375 -163.78125 L 28.734375 -224.765625 L 85.25 -224.765625 L 85.25 -163.78125 L 119.71875 -163.78125 L 119.71875 -120.6875 L 85.25 -120.6875 L 85.25 -68.640625 C 85.25 -53.523438 89.503906 -45.96875 98.015625 -45.96875 C 100.140625 -45.96875 102.375 -46.394531 104.71875 -47.25 C 107.0625 -48.101562 108.867188 -48.957031 110.140625 -49.8125 L 112.0625 -51.078125 L 126.109375 -5.421875 C 113.972656 1.378906 100.140625 4.78125 84.609375 4.78125 C 73.960938 4.78125 64.804688 2.921875 57.140625 -0.796875 C 49.484375 -4.523438 43.6875 -9.523438 39.75 -15.796875 C 35.8125 -22.078125 32.988281 -28.675781 31.28125 -35.59375 C 29.582031 -42.507812 28.734375 -49.90625 28.734375 -57.78125 L 28.734375 -120.6875 L 5.109375 -120.6875 L 5.109375 -163.78125 Z M 28.734375 -163.78125 "/></g></g></g><g fill="#9b177e" fill-opacity="1"><g transform="translate(527.858244, 290.06204)"><g><path d="M 30.328125 -20.265625 C 15.003906 -36.972656 7.34375 -57.457031 7.34375 -81.71875 C 7.34375 -105.988281 15.003906 -126.53125 30.328125 -143.34375 C 45.648438 -160.164062 65.125 -168.578125 88.75 -168.578125 C 110.46875 -168.578125 128.347656 -161.765625 142.390625 -148.140625 L 142.390625 -163.78125 L 198.90625 -163.78125 L 198.90625 0 L 143.03125 0 L 143.03125 -18.515625 L 142.390625 -18.515625 C 128.347656 -2.984375 110.46875 4.78125 88.75 4.78125 C 65.125 4.78125 45.648438 -3.566406 30.328125 -20.265625 Z M 78.375 -109.5 C 71.03125 -102.269531 67.359375 -93.015625 67.359375 -81.734375 C 67.359375 -70.453125 70.867188 -61.242188 77.890625 -54.109375 C 84.921875 -46.984375 94.179688 -43.421875 105.671875 -43.421875 C 116.742188 -43.421875 125.84375 -47.035156 132.96875 -54.265625 C 140.101562 -61.503906 143.671875 -70.660156 143.671875 -81.734375 C 143.671875 -93.015625 140 -102.269531 132.65625 -109.5 C 125.3125 -116.738281 116.316406 -120.359375 105.671875 -120.359375 C 94.816406 -120.359375 85.71875 -116.738281 78.375 -109.5 Z M 78.375 -109.5 "/></g></g></g><g fill="#9b177e" fill-opacity="1"><g transform="translate(736.014774, 290.06204)"><g><path d="M 106.3125 -122.28125 C 95.675781 -122.28125 86.523438 -118.34375 78.859375 -110.46875 C 71.191406 -102.59375 67.359375 -93.117188 67.359375 -82.046875 C 67.359375 -70.765625 71.191406 -61.1875 78.859375 -53.3125 C 86.523438 -45.4375 95.675781 -41.5 106.3125 -41.5 C 111.425781 -41.5 116.269531 -42.132812 120.84375 -43.40625 C 125.414062 -44.6875 128.769531 -45.96875 130.90625 -47.25 L 133.765625 -49.171875 L 152.921875 -9.890625 C 151.429688 -8.828125 149.359375 -7.5 146.703125 -5.90625 C 144.046875 -4.3125 137.976562 -2.132812 128.5 0.625 C 119.03125 3.394531 108.867188 4.78125 98.015625 4.78125 C 73.960938 4.78125 52.835938 -3.675781 34.640625 -20.59375 C 16.441406 -37.507812 7.34375 -57.78125 7.34375 -81.40625 C 7.34375 -105.25 16.441406 -125.738281 34.640625 -142.875 C 52.835938 -160.007812 73.960938 -168.578125 98.015625 -168.578125 C 108.867188 -168.578125 118.867188 -167.296875 128.015625 -164.734375 C 137.171875 -162.179688 143.664062 -159.628906 147.5 -157.078125 L 152.921875 -153.25 L 133.765625 -114.609375 C 126.742188 -119.722656 117.59375 -122.28125 106.3125 -122.28125 Z M 106.3125 -122.28125 "/></g></g></g><g fill="#9b177e" fill-opacity="1"><g transform="translate(882.873529, 290.06204)"><g><path d="M 19.15625 0 L 19.15625 -274.5625 L 75.671875 -274.5625 L 75.671875 -146.546875 L 76.296875 -146.546875 C 90.984375 -161.234375 106.628906 -168.578125 123.234375 -168.578125 C 131.328125 -168.578125 139.363281 -167.507812 147.34375 -165.375 C 155.320312 -163.25 162.984375 -159.953125 170.328125 -155.484375 C 177.671875 -151.015625 183.628906 -144.679688 188.203125 -136.484375 C 192.785156 -128.285156 195.078125 -118.757812 195.078125 -107.90625 L 195.078125 0 L 138.5625 0 L 138.5625 -92.59375 C 138.5625 -101.101562 135.847656 -108.550781 130.421875 -114.9375 C 124.992188 -121.320312 117.914062 -124.515625 109.1875 -124.515625 C 100.675781 -124.515625 92.960938 -121.210938 86.046875 -114.609375 C 79.128906 -108.015625 75.671875 -100.675781 75.671875 -92.59375 L 75.671875 0 Z M 19.15625 0 "/></g></g></g><g fill="#9b177e" fill-opacity="1"><g transform="translate(1084.006377, 290.06204)"><g><path d="M 184.859375 -74.0625 L 66.09375 -74.0625 C 66.09375 -62.570312 69.816406 -54.0625 77.265625 -48.53125 C 84.710938 -43 92.800781 -40.234375 101.53125 -40.234375 C 110.675781 -40.234375 117.910156 -41.457031 123.234375 -43.90625 C 128.554688 -46.351562 134.625 -51.191406 141.4375 -58.421875 L 182.296875 -38 C 165.273438 -9.476562 136.96875 4.78125 97.375 4.78125 C 72.6875 4.78125 51.507812 -3.675781 33.84375 -20.59375 C 16.175781 -37.507812 7.34375 -57.882812 7.34375 -81.71875 C 7.34375 -105.5625 16.175781 -126 33.84375 -143.03125 C 51.507812 -160.0625 72.6875 -168.578125 97.375 -168.578125 C 123.34375 -168.578125 144.46875 -161.070312 160.75 -146.0625 C 177.03125 -131.0625 185.171875 -109.617188 185.171875 -81.734375 C 185.171875 -77.898438 185.066406 -75.34375 184.859375 -74.0625 Z M 67.6875 -105.359375 L 129.9375 -105.359375 C 128.664062 -113.867188 125.316406 -120.410156 119.890625 -124.984375 C 114.460938 -129.566406 107.488281 -131.859375 98.96875 -131.859375 C 89.601562 -131.859375 82.15625 -129.410156 76.625 -124.515625 C 71.09375 -119.617188 68.113281 -113.234375 67.6875 -105.359375 Z M 67.6875 -105.359375 "/></g></g></g></g></g><path stroke-linecap="butt" transform="matrix(0.75, 0, 0, 0.75, 1207.739113, 903.741934)" fill="none" stroke-linejoin="miter" d="M -0.00110943 21.50034 L 225.113493 21.50034 " stroke="#9b177e" stroke-width="43" stroke-opacity="1" stroke-miterlimit="4"/><g clip-path="url(#57136faae2)"><path fill="#9b177e" d="M 953.371094 277.882812 L 953.410156 671.480469 C 953.410156 675.980469 952.847656 680.511719 951.765625 684.996094 C 946.851562 705.28125 931.179688 724.597656 908.175781 735.613281 C 871.539062 753.148438 830.160156 743 815.769531 712.925781 C 801.375 682.863281 819.414062 644.269531 856.050781 626.722656 C 884.222656 613.238281 915.183594 616.125 934.539062 631.847656 L 934.53125 522.15625 L 875.910156 522.15625 L 875.910156 230.984375 C 855.027344 222.082031 833.007812 215.332031 810.132812 211.003906 L 810.199219 577.246094 C 810.199219 584.542969 809.292969 591.886719 807.535156 599.152344 C 799.570312 632.03125 774.175781 663.332031 736.890625 681.179688 C 677.511719 709.597656 610.464844 693.148438 587.144531 644.417969 C 563.816406 595.695312 593.039062 533.148438 652.417969 504.71875 C 698.074219 482.867188 748.257812 487.546875 779.617188 513.019531 L 779.605469 391.871094 L 721.019531 391.871094 L 721.019531 206.6875 C 696.082031 208.910156 671.972656 213.992188 649.003906 221.597656 L 649.023438 411 C 649.023438 415.867188 648.414062 420.761719 647.242188 425.613281 C 641.933594 447.554688 624.984375 468.433594 600.109375 480.34375 C 560.492188 499.308594 515.753906 488.332031 500.191406 455.816406 C 484.625 423.304688 504.128906 381.574219 543.746094 362.605469 C 574.207031 348.027344 607.691406 351.144531 628.621094 368.140625 L 628.605469 229.117188 C 511.28125 277.019531 428.609375 392.261719 428.609375 526.8125 C 428.609375 704.324219 572.511719 848.226562 750.027344 848.226562 C 927.542969 848.226562 1071.445312 704.324219 1071.445312 526.8125 C 1071.445312 426.445312 1025.4375 336.820312 953.371094 277.882812 " fill-opacity="1" fill-rule="nonzero"/></g><g clip-path="url(#2add3ed567)"><path fill="#9b177e" d="M 545.945312 778.777344 L 545.902344 383.125 C 545.902344 378.601562 546.46875 374.046875 547.554688 369.539062 C 552.496094 349.148438 568.246094 329.730469 591.375 318.65625 C 628.203125 301.03125 669.796875 311.234375 684.261719 341.460938 C 698.730469 371.683594 680.597656 410.476562 643.769531 428.117188 C 615.453125 441.671875 584.328125 438.769531 564.875 422.964844 L 564.878906 533.230469 L 623.804688 533.230469 L 623.804688 825.921875 C 644.800781 834.871094 666.933594 841.65625 689.925781 846.007812 L 689.863281 477.851562 C 689.863281 470.519531 690.773438 463.136719 692.542969 455.832031 C 700.546875 422.78125 726.070312 391.316406 763.554688 373.375 C 823.242188 344.808594 890.640625 361.34375 914.082031 410.328125 C 937.53125 459.308594 908.15625 522.179688 848.46875 550.757812 C 802.574219 572.726562 752.125 568.023438 720.601562 542.414062 L 720.613281 664.195312 L 779.507812 664.195312 L 779.507812 850.347656 C 804.574219 848.113281 828.8125 843.003906 851.898438 835.359375 L 851.878906 644.96875 C 851.878906 640.074219 852.492188 635.152344 853.667969 630.277344 C 859.007812 608.222656 876.042969 587.234375 901.050781 575.261719 C 940.875 556.195312 985.84375 567.230469 1001.488281 599.917969 C 1017.136719 632.597656 997.53125 674.546875 957.707031 693.613281 C 927.085938 708.269531 893.425781 705.136719 872.390625 688.046875 L 872.402344 827.800781 C 990.339844 779.648438 1073.445312 663.800781 1073.445312 528.550781 C 1073.445312 350.109375 928.789062 205.453125 750.347656 205.453125 C 571.902344 205.453125 427.253906 350.109375 427.253906 528.550781 C 427.253906 629.441406 473.5 719.53125 545.945312 778.777344 " fill-opacity="1" fill-rule="nonzero"/></g><g clip-path="url(#35fdc2987c)"><path fill="#9b177e" d="M 546.625 775.789062 L 546.582031 382.191406 C 546.582031 377.691406 547.144531 373.160156 548.226562 368.679688 C 553.144531 348.390625 568.8125 329.074219 591.820312 318.058594 C 628.457031 300.523438 669.832031 310.675781 684.222656 340.746094 C 698.617188 370.8125 680.578125 409.402344 643.941406 426.949219 C 615.773438 440.433594 584.808594 437.550781 565.457031 421.828125 L 565.460938 531.515625 L 624.082031 531.515625 L 624.082031 822.691406 C 644.96875 831.589844 666.984375 838.339844 689.859375 842.671875 L 689.792969 476.425781 C 689.792969 469.132812 690.703125 461.789062 692.460938 454.519531 C 700.425781 421.644531 725.816406 390.339844 763.101562 372.492188 C 822.480469 344.074219 889.527344 360.523438 912.847656 409.253906 C 936.179688 457.980469 906.953125 520.527344 847.574219 548.957031 C 801.921875 570.808594 751.734375 566.128906 720.375 540.652344 L 720.386719 661.800781 L 778.976562 661.800781 L 778.976562 846.988281 C 803.910156 844.761719 828.023438 839.679688 850.988281 832.078125 L 850.96875 642.675781 C 850.96875 637.808594 851.578125 632.910156 852.75 628.058594 C 858.0625 606.121094 875.007812 585.238281 899.882812 573.328125 C 939.503906 554.363281 984.238281 565.34375 999.800781 597.859375 C 1015.367188 630.367188 995.867188 672.101562 956.246094 691.066406 C 925.785156 705.648438 892.300781 702.53125 871.375 685.53125 L 871.386719 824.558594 C 988.710938 776.65625 1071.382812 661.410156 1071.382812 526.863281 C 1071.382812 349.347656 927.480469 205.445312 749.964844 205.445312 C 572.449219 205.445312 428.550781 349.347656 428.550781 526.863281 C 428.550781 627.230469 474.554688 716.851562 546.625 775.789062 " fill-opacity="1" fill-rule="nonzero"/></g><g clip-path="url(#7157a8088e)"><path fill="#9b177e" d="M 783.375 536.867188 L 783.339844 209.519531 C 783.339844 205.777344 783.804688 202.007812 784.707031 198.277344 C 788.796875 181.40625 801.828125 165.339844 820.960938 156.179688 C 851.429688 141.597656 885.84375 150.039062 897.8125 175.050781 C 909.785156 200.054688 894.78125 232.148438 864.3125 246.742188 C 840.882812 257.957031 815.128906 255.558594 799.035156 242.480469 L 799.039062 333.707031 L 847.792969 333.707031 L 847.792969 575.871094 C 865.164062 583.273438 883.476562 588.886719 902.5 592.488281 L 902.445312 287.890625 C 902.445312 281.824219 903.199219 275.714844 904.664062 269.671875 C 911.285156 242.328125 932.402344 216.296875 963.414062 201.453125 C 1012.796875 177.816406 1068.558594 191.496094 1087.957031 232.023438 C 1107.359375 272.550781 1083.050781 324.566406 1033.667969 348.210938 C 995.699219 366.386719 953.960938 362.496094 927.878906 341.308594 L 927.890625 442.066406 L 976.617188 442.066406 L 976.617188 596.078125 C 997.351562 594.230469 1017.40625 590.003906 1036.507812 583.679688 L 1036.492188 426.15625 C 1036.492188 422.109375 1036.996094 418.035156 1037.972656 414 C 1042.390625 395.753906 1056.484375 378.390625 1077.171875 368.484375 C 1110.121094 352.710938 1147.328125 361.839844 1160.269531 388.882812 C 1173.21875 415.921875 1157 450.628906 1124.050781 466.402344 C 1098.714844 478.527344 1070.867188 475.9375 1053.460938 461.800781 L 1053.472656 577.425781 C 1151.046875 537.585938 1219.804688 441.738281 1219.804688 329.835938 C 1219.804688 182.203125 1100.125 62.523438 952.488281 62.523438 C 804.851562 62.523438 685.171875 182.203125 685.171875 329.835938 C 685.171875 413.3125 723.4375 487.847656 783.375 536.867188 " fill-opacity="1" fill-rule="nonzero"/></g><g clip-path="url(#ccb719a2f4)"><path fill="#9b177e" d="M 930.808594 640.40625 L 930.773438 313.058594 C 930.773438 309.316406 931.242188 305.550781 932.140625 301.820312 C 936.230469 284.949219 949.261719 268.882812 968.394531 259.722656 C 998.867188 245.140625 1033.277344 253.582031 1045.246094 278.589844 C 1057.21875 303.59375 1042.214844 335.691406 1011.746094 350.285156 C 988.316406 361.5 962.566406 359.097656 946.46875 346.023438 L 946.472656 437.25 L 995.226562 437.25 L 995.226562 679.414062 C 1012.597656 686.816406 1030.910156 692.429688 1049.933594 696.03125 L 1049.878906 391.433594 C 1049.878906 385.367188 1050.636719 379.257812 1052.097656 373.214844 C 1058.722656 345.871094 1079.839844 319.835938 1110.847656 304.992188 C 1160.230469 281.359375 1215.996094 295.039062 1235.390625 335.566406 C 1254.792969 376.089844 1230.488281 428.109375 1181.105469 451.753906 C 1143.132812 469.929688 1101.394531 466.035156 1075.3125 444.847656 L 1075.324219 545.605469 L 1124.050781 545.605469 L 1124.050781 699.621094 C 1144.789062 697.769531 1164.839844 693.542969 1183.945312 687.21875 L 1183.925781 529.699219 C 1183.925781 525.648438 1184.433594 521.578125 1185.40625 517.542969 C 1189.824219 499.296875 1203.917969 481.929688 1224.609375 472.023438 C 1257.558594 456.25 1294.765625 465.382812 1307.707031 492.425781 C 1320.652344 519.464844 1304.433594 554.171875 1271.484375 569.945312 C 1246.148438 582.070312 1218.300781 579.480469 1200.894531 565.339844 L 1200.90625 680.964844 C 1298.484375 641.125 1367.242188 545.28125 1367.242188 433.378906 C 1367.242188 285.746094 1247.558594 166.0625 1099.921875 166.0625 C 952.285156 166.0625 832.609375 285.746094 832.609375 433.378906 C 832.609375 516.851562 870.871094 591.390625 930.808594 640.40625 " fill-opacity="1" fill-rule="nonzero"/></g></svg>