<svg width="255" height="229" viewBox="0 0 255 229" fill="none" xmlns="http://www.w3.org/2000/svg">
<path d="M150.535 0.0297852C186.383 -1.85155 186.068 86.1446 184.993 109.341C184.336 123.501 182.122 140.278 177.098 153.62C166.458 181.868 145.46 169.877 125.08 161.207C115.398 157.093 103.981 152.291 93.6791 147.925C93.5661 163.221 93.5987 178.518 93.7758 193.806C103.371 194.028 121.31 190.746 128.623 198.134C131.849 201.393 132.655 205.927 132.69 210.324C132.727 215.087 132.229 221.193 128.586 224.673C122.208 230.772 83.6839 228.146 73.9164 228.116C54.53 227.963 32.9234 229.054 13.5912 227.696C2.74635 225.482 -0.569159 217.407 1.45251 207.652C4.52049 192.837 13.7115 194.241 26.7328 194.371C26.6084 182.227 26.6152 170.091 26.7533 157.948C22.0506 155.398 17.7286 152.589 13.889 148.833C4.99373 140.254 -0.0206588 128.416 0.00134277 116.059C-0.0955815 102.995 5.11384 90.4498 14.4369 81.2974C27.8735 67.9897 41.6131 67.0043 59.1381 67.1997C76.7332 53.1363 94.4104 39.1747 112.167 25.3159C121.858 17.7349 139.329 2.05015 150.535 0.0297852ZM209.383 121.333C220.027 120.821 224.287 127.5 232.319 133.08C243.416 140.789 254.356 155.68 236.217 163.954C224.737 164.541 216.381 154.879 207.919 147.971C197.593 139.537 195.282 127.943 209.383 121.333ZM154.215 46.4546C151.119 39.718 146.615 35.9271 139.157 36.4888C116.811 49.7255 120.398 114.608 133.871 134.636C137.107 139.445 140.293 141.246 146.049 141.803C168.283 130.98 163.081 65.7426 154.215 46.4546ZM56.6566 108.033C53.201 102.908 46.9328 100.46 40.9183 101.886C35.7212 103.118 31.5847 107.047 30.0873 112.179C28.5899 117.301 29.9626 122.843 33.6801 126.674C37.3982 130.513 42.8897 132.055 48.0609 130.719C51.4563 129.841 54.4318 127.789 56.4603 124.934C60.0351 119.889 60.1131 113.157 56.6566 108.033ZM207.248 70.2603C216.794 70.0862 236.333 68.6147 244.65 71.1831C257.502 75.1539 257.993 91.5815 243.507 97.0679C237.999 97.4892 232.116 97.1513 226.273 97.4604C212.333 98.197 187.967 98.3878 197.595 76.6401C199.232 72.9422 203.49 71.4097 207.248 70.2603ZM224.641 3.08643C235.325 1.46691 244.267 7.96168 241.438 18.6108C239.376 26.368 220.796 42.7437 213.916 46.3579C199.336 47.4272 191.259 36.4749 200.851 24.3335C205.133 18.9141 218.691 6.52722 224.641 3.08643Z" fill="black"/>
</svg>
