<svg width="260" height="218" viewBox="0 0 260 218" fill="none" xmlns="http://www.w3.org/2000/svg">
<path d="M109.995 0C111.452 0.096246 114.041 0.578972 115.449 1.05562C119.396 2.3916 122.612 5.30725 124.328 9.10591C125.554 11.7817 125.369 15.5995 125.454 18.5487C125.957 35.9799 126.86 202.967 124.273 208.525C122.012 213.383 117.479 215.606 112.697 217.188C91.8734 216.056 95.8406 198.177 95.8315 182.505L95.8498 139.156L95.8246 59.771C95.8208 45.38 95.7269 31.0225 96.0255 16.6338C96.25 5.76789 99.7835 2.30303 109.995 0Z" fill="black"/>
<path d="M146.346 43.4496C157.561 42.7507 164.459 46.8893 164.597 58.9254C164.862 88.8441 164.795 118.796 164.811 148.721C164.817 160.968 166.931 168.201 154.547 174.577C144.229 175.405 136.494 171.611 136.431 160.117C136.238 124.512 135.351 88.5279 136.836 53.0108C137.011 48.802 143.128 45.1102 146.346 43.4496Z" fill="black"/>
<path d="M68.4924 47.3097C80.7867 46.5955 86.3111 51.5109 86.5112 63.7647C87.0091 94.2503 86.6815 124.768 86.6724 155.26C86.6701 165.692 85.9652 169.63 76.2017 174.319C73.7953 174.743 72.0549 174.837 69.6165 174.378C65.9142 173.705 62.6534 171.534 60.6059 168.376C55.4443 160.393 59.7086 81.0195 58.2844 65.9242C57.4298 56.8641 60.1523 51.4575 68.4924 47.3097Z" fill="black"/>
<path d="M185.541 62.4713C190.764 62.2757 200.242 64.8423 200.85 71.1036C203.176 95.01 201.844 119.913 201.634 143.976C201.571 151.211 195.503 154.673 189.475 156.428C187.51 156.393 185.327 156.149 183.461 155.492C180.07 154.3 176.839 151.906 175.405 148.523C172.938 142.7 172.993 76.0137 175.302 70.6713C177.339 65.9583 181.047 64.2014 185.541 62.4713Z" fill="black"/>
<path d="M33.3667 76.2743C58.3113 74.2875 47.2938 105.467 50.0957 119.392C54.0454 139.022 36.9055 157.144 24.4508 136.851C23.788 133.276 24.027 125.964 24.0361 122.063C15.6724 122.191 -8.60471 124.426 3.15813 103.475C5.4942 99.3145 18.734 100.405 23.9888 100.456C23.8529 89.0941 22.0231 82.295 33.3667 76.2743Z" fill="black"/>
<path d="M220.456 85.4199C231.694 85.1701 235.515 89.7128 236.397 100.512C244.966 100.319 259.772 98.0044 259.857 111.449C259.939 124.174 245.421 122.145 236.59 122.01C234.179 132.39 225.588 140.864 215.017 132.372C208.748 127.334 211.077 103.011 211.24 94.1027C214.289 88.9413 215.248 88.0682 220.456 85.4199Z" fill="black"/>
</svg>
